<?xml version="1.0" encoding="iso-8859-1"?>
<!-- Uploaded to: SVG Repo, www.svgrepo.com, Generator: SVG Repo Mixer Tools -->
<svg height="800px" width="800px" version="1.1" id="Layer_1" xmlns="http://www.w3.org/2000/svg" xmlns:xlink="http://www.w3.org/1999/xlink" 
	 viewBox="0 0 512 512" xml:space="preserve">
<g>
	<circle style="fill:#A6DAE8;" cx="256" cy="256" r="256"/>
	<path style="fill:#95C2D8;" d="M510.136,286.433c-0.2-0.195-151.091-151.117-152.054-152.054
		c-24.607-25.349-59.023-41.124-97.147-41.124c-74.783,0-135.409,60.626-135.409,135.409c0,38.871,16.404,73.876,42.639,98.56
		c0.952,0.952,53.32,53.376,54.303,54.303l0.604,0.625l-21.391,21.391l-0.307-0.307l-91.459-91.459l-7.624,7.624l24.837,24.837
		c7.409,7.409,13.665,22.513,13.665,32.993l0.005,2.094c0,13.343,7.388,31.186,16.819,40.612l90.993,90.993l0.2,0.159l0.261,0.297
		l0.44,0.44c2.161,0.061,4.311,0.174,6.487,0.174C387.077,512,495.078,413.46,510.136,286.433z"/>
	<circle style="fill:#0F303F;" cx="261.888" cy="229.637" r="91.162"/>
	<path style="fill:#0F303F;" d="M326.369,294.098L198.124,422.339c-10.506,10.506-27.602,10.506-38.108,0l-2.396-2.396
		c-9.431-9.431-16.819-27.269-16.819-40.612l-0.005-2.094c0-10.481-6.257-25.59-13.665-32.998l-24.832-24.832l7.624-7.624
		l24.832,24.832c9.436,9.436,16.824,27.274,16.824,40.612l0.005,2.094c0,10.486,6.257,25.59,13.66,32.998l2.396,2.401
		c6.303,6.303,16.563,6.303,22.866,0l128.241-128.241L326.369,294.098z"/>
	<path style="fill:#2C5871;" d="M260.936,93.256c-74.788,0-135.409,60.626-135.409,135.409s60.626,135.409,135.409,135.409
		c74.788,0,135.409-60.626,135.409-135.409S335.724,93.256,260.936,93.256z M330.337,142.29l-33.142,33.142
		c-7.301-4.762-15.355-7.885-23.644-9.395V118.61C294.426,120.96,313.994,129.121,330.337,142.29z M248.934,118.518v47.775
		c-8.069,1.644-15.877,4.828-22.958,9.574l-33.94-33.94C208.461,128.824,228.065,120.76,248.934,118.518z M174.561,159.268
		l33.94,33.94c-4.813,7.04-8.069,14.807-9.789,22.845h-47.831C153.231,195.174,161.393,175.606,174.561,159.268z M150.789,240.666
		h47.432c1.428,8.305,4.48,16.374,9.165,23.711l-33.188,33.188C161.096,281.144,153.032,261.535,150.789,240.666z M191.539,315.039
		l32.819-32.819c7.332,5.248,15.488,8.801,23.967,10.614v45.891C227.446,336.369,207.877,328.207,191.539,315.039z M272.937,338.811
		V293.32c8.75-1.51,17.249-4.792,24.899-9.917l32,32C313.416,328.504,293.806,336.568,272.937,338.811z M347.31,298.066l-32-32
		c5.197-7.603,8.602-16.056,10.194-24.786h45.486C368.64,262.154,360.479,281.723,347.31,298.066z M371.082,216.663h-45.834
		c-1.731-8.504-5.217-16.696-10.394-24.079l32.819-32.819C360.776,176.189,368.84,195.794,371.082,216.663z"/>
	<circle style="fill:#FDC00F;" cx="261.11" cy="229.965" r="42.721"/>
	<path style="fill:#F29A00;" d="M261.11,187.244v85.443c23.593,0,42.721-19.128,42.721-42.721S284.703,187.244,261.11,187.244z"/>
	<circle style="fill:#0F303F;" cx="261.888" cy="229.637" r="20.193"/>
</g>
</svg>